<svg width="125" height="118" viewBox="0 0 125 118" fill="none" xmlns="http://www.w3.org/2000/svg">
<path d="M87.3085 52.093L50.5503 113.678L67.2754 52.8796L87.3085 52.093Z" fill="#FEE900"/>
<path d="M43.952 65.4798L81.2065 4.19241L63.9908 64.8543L43.952 65.4798Z" fill="#FEE900"/>
<path d="M113.199 73.4826C114.805 73.9557 115.73 75.6457 115.168 77.2227C111.172 88.4361 103.671 98.1079 93.7314 104.787C83.7876 111.469 71.9771 114.77 60.0516 114.248C58.3839 114.175 57.169 112.687 57.3326 111.026V111.026C57.496 109.366 58.9743 108.162 60.6412 108.224C71.1639 108.616 81.5707 105.673 90.3467 99.7755C99.1196 93.8803 105.762 85.3699 109.352 75.4999C109.923 73.9296 111.596 73.0104 113.199 73.4826V73.4826Z" fill="#FEE900"/>
<path d="M83.8073 11.4391C84.5172 9.92985 86.3197 9.27251 87.7894 10.0594C95.5215 14.1997 102.181 20.1053 107.214 27.3106C112.243 34.5104 115.489 42.7803 116.707 51.4423C116.94 53.0995 115.693 54.569 114.025 54.7107V54.7107C112.36 54.8521 110.905 53.6159 110.662 51.9628C109.542 44.3554 106.666 37.0961 102.243 30.7649C97.8201 24.4322 91.9875 19.2255 85.2188 15.5425C83.7518 14.7442 83.0961 12.9511 83.8073 11.4391V11.4391Z" fill="#213B71"/>
<path d="M14.1009 41.1647C12.5251 40.5997 11.6994 38.8592 12.3519 37.3173C16.9916 26.3532 25.0408 17.13 35.3505 11.0354C45.665 4.93804 57.647 2.32379 69.5223 3.53239C71.183 3.7014 72.3097 5.25662 72.0501 6.90559V6.90559C71.7907 8.55342 70.2451 9.67002 68.5846 9.51191C58.1021 8.51383 47.5422 10.8523 38.4391 16.2336C29.3392 21.613 22.2144 29.7261 18.0587 39.3726C17.3976 40.9073 15.6736 41.7285 14.1009 41.1647V41.1647Z" fill="#FEE900"/>
<path d="M46.8271 109.138C46.279 110.713 44.5553 111.554 43.0116 110.925C33.8651 107.194 25.8552 101.104 19.8183 93.2558C13.7854 85.4127 9.96275 76.1258 8.71623 66.3551C8.50446 64.6951 9.76845 63.2422 11.4377 63.1217V63.1217C13.1054 63.0013 14.5454 64.2573 14.7679 65.9144C15.9215 74.5082 19.3118 82.6707 24.6246 89.5776C29.9389 96.4864 36.9679 101.867 44.9941 105.204C46.5366 105.845 47.3762 107.56 46.8271 109.138V109.138Z" fill="#233B6E"/>
<path d="M21.1954 57.5312C21.1954 60.0155 20.206 62.398 18.4449 64.1546C16.6838 65.9113 14.2952 66.8981 11.8046 66.8981C9.31402 66.8981 6.92544 65.9113 5.16432 64.1546C3.4032 62.398 2.41382 60.0155 2.41382 57.5312L11.8046 57.5312H21.1954Z" fill="#233B6E"/>
<rect x="0.341797" y="55.4237" width="23.2534" height="4.46043" rx="2.23022" fill="#233B6E"/>
<rect x="5.70801" y="58.9921" width="13.3813" height="2.68308" rx="1.34154" transform="rotate(-90 5.70801 58.9921)" fill="#233B6E"/>
<rect x="14.8452" y="58.9624" width="13.3813" height="2.68308" rx="1.34154" transform="rotate(-90 14.8452 58.9624)" fill="#233B6E"/>
<ellipse cx="113.925" cy="59.8841" rx="10.7323" ry="10.705" transform="rotate(-180 113.925 59.8841)" fill="#213B71"/>
<rect x="119.292" y="71.0173" width="10.5177" height="11.1332" transform="rotate(-180 119.292 71.0173)" fill="white"/>
<path d="M114.033 55.0669L119.292 59.8842H108.774L114.033 55.0669Z" fill="white"/>
</svg>
