<svg width="177" height="242" viewBox="0 0 177 242" fill="none" xmlns="http://www.w3.org/2000/svg">
<rect width="176.428" height="241.968" rx="10" fill="white"/>
<path d="M121.826 70.6023L72.0247 154.253L94.6844 71.6708L121.826 70.6023Z" fill="#FEE900"/>
<path d="M63.0844 88.7856L113.558 5.53922L90.2338 87.9359L63.0844 88.7856Z" fill="#FEE900"/>
<path d="M156.909 99.6572C159.082 100.299 160.335 102.587 159.576 104.722C154.163 119.959 143.998 133.101 130.528 142.176C117.058 151.251 101.06 155.734 84.9053 155.027C82.6411 154.928 80.9915 152.908 81.2131 150.653C81.4346 148.397 83.4433 146.761 85.7082 146.846C99.9606 147.375 114.055 143.377 125.942 135.369C137.829 127.361 146.829 115.801 151.692 102.393C152.465 100.262 154.735 99.0152 156.909 99.6572Z" fill="#FEE900"/>
<path d="M117.08 15.3872C118.043 13.3354 120.493 12.4425 122.489 13.5149C132.96 19.1382 141.978 27.1574 148.795 36.9405C155.611 46.7236 160.01 57.9614 161.658 69.7317C161.972 71.9763 160.286 73.9653 158.027 74.1575C155.769 74.3498 153.795 72.6721 153.466 70.4297C151.95 60.0951 148.053 50.2333 142.06 41.6325C136.068 33.0317 128.167 25.9599 118.997 20.9573C117.008 19.8718 116.117 17.4391 117.08 15.3872Z" fill="#213B71"/>
<path d="M22.6357 55.7565C20.5028 54.9899 19.3849 52.6339 20.2659 50.5457C26.551 35.6474 37.4587 23.1147 51.4308 14.8341C65.4029 6.55343 81.6336 3.00232 97.72 4.64193C99.9748 4.87173 101.505 6.98354 101.153 9.22255C100.802 11.4616 98.7017 12.9785 96.4454 12.7635C82.2475 11.4108 67.9451 14.5874 55.6154 21.8948C43.2856 29.2021 33.6323 40.223 28.0021 53.327C27.1075 55.4093 24.7686 56.5231 22.6357 55.7565Z" fill="#FEE900"/>
<path d="M66.9818 148.081C66.2385 150.222 63.8951 151.366 61.7974 150.507C49.4109 145.44 38.5636 137.17 30.3874 126.513C22.2112 115.857 17.0315 103.238 15.3443 89.9619C15.0586 87.7135 16.77 85.7462 19.0305 85.5826C21.2911 85.4191 23.2434 87.1218 23.5439 89.3683C25.1059 101.044 29.6997 112.134 36.8991 121.517C44.0986 130.901 53.6208 138.209 64.4939 142.741C66.5859 143.613 67.7251 145.94 66.9818 148.081Z" fill="#233B6E"/>
<path d="M32.2531 77.9891C32.2531 81.3634 30.9126 84.5996 28.5266 86.9856C26.1406 89.3716 22.9044 90.7121 19.5301 90.7121C16.1557 90.7121 12.9196 89.3716 10.5336 86.9856C8.14753 84.5996 6.80707 81.3634 6.80707 77.9891L19.5301 77.9891H32.2531Z" fill="#233B6E"/>
<rect x="4" y="75.1264" width="31.5046" height="6.05858" rx="3.02929" fill="#233B6E"/>
<rect x="11.2702" y="79.9732" width="18.1757" height="3.63515" rx="1.81757" transform="rotate(-90 11.2702 79.9732)" fill="#233B6E"/>
<rect x="23.65" y="79.9328" width="18.1757" height="3.63515" rx="1.81757" transform="rotate(-90 23.65 79.9328)" fill="#233B6E"/>
<circle cx="157.888" cy="81.185" r="14.5406" transform="rotate(-180 157.888 81.185)" fill="#213B71"/>
<rect x="165.158" y="96.3072" width="14.2498" height="15.1222" transform="rotate(-180 165.158 96.3072)" fill="white"/>
<path d="M158.033 74.6417L165.158 81.1849H150.908L158.033 74.6417Z" fill="white"/>
<path d="M30.4848 181.928V186.128H36.1248V188.792H30.4848V193.232H36.8448V195.968H27.1248V179.192H36.8448V181.928H30.4848ZM43.2582 178.208V195.968H39.8982V178.208H43.2582ZM58.9379 189.032C58.9379 189.512 58.9059 189.944 58.8419 190.328H49.1219C49.2019 191.288 49.5379 192.04 50.1299 192.584C50.7219 193.128 51.4499 193.4 52.3139 193.4C53.5619 193.4 54.4499 192.864 54.9779 191.792H58.6019C58.2179 193.072 57.4819 194.128 56.3939 194.96C55.3059 195.776 53.9699 196.184 52.3859 196.184C51.1059 196.184 49.9539 195.904 48.9299 195.344C47.9219 194.768 47.1299 193.96 46.5539 192.92C45.9939 191.88 45.7139 190.68 45.7139 189.32C45.7139 187.944 45.9939 186.736 46.5539 185.696C47.1139 184.656 47.8979 183.856 48.9059 183.296C49.9139 182.736 51.0739 182.456 52.3859 182.456C53.6499 182.456 54.7779 182.728 55.7699 183.272C56.7779 183.816 57.5539 184.592 58.0979 185.6C58.6579 186.592 58.9379 187.736 58.9379 189.032ZM55.4579 188.072C55.4419 187.208 55.1299 186.52 54.5219 186.008C53.9139 185.48 53.1699 185.216 52.2899 185.216C51.4579 185.216 50.7539 185.472 50.1779 185.984C49.6179 186.48 49.2739 187.176 49.1459 188.072H55.4579ZM60.5264 189.32C60.5264 187.944 60.8064 186.744 61.3664 185.72C61.9264 184.68 62.7024 183.88 63.6944 183.32C64.6864 182.744 65.8224 182.456 67.1024 182.456C68.7504 182.456 70.1104 182.872 71.1824 183.704C72.2704 184.52 72.9984 185.672 73.3664 187.16H69.7424C69.5504 186.584 69.2224 186.136 68.7584 185.816C68.3104 185.48 67.7504 185.312 67.0784 185.312C66.1184 185.312 65.3584 185.664 64.7984 186.368C64.2384 187.056 63.9584 188.04 63.9584 189.32C63.9584 190.584 64.2384 191.568 64.7984 192.272C65.3584 192.96 66.1184 193.304 67.0784 193.304C68.4384 193.304 69.3264 192.696 69.7424 191.48H73.3664C72.9984 192.92 72.2704 194.064 71.1824 194.912C70.0944 195.76 68.7344 196.184 67.1024 196.184C65.8224 196.184 64.6864 195.904 63.6944 195.344C62.7024 194.768 61.9264 193.968 61.3664 192.944C60.8064 191.904 60.5264 190.696 60.5264 189.32ZM79.7399 185.432V191.864C79.7399 192.312 79.8439 192.64 80.0519 192.848C80.2759 193.04 80.6439 193.136 81.1559 193.136H82.7159V195.968H80.6039C77.7719 195.968 76.3559 194.592 76.3559 191.84V185.432H74.7719V182.672H76.3559V179.384H79.7399V182.672H82.7159V185.432H79.7399ZM88.4926 184.736C88.9246 184.032 89.4846 183.48 90.1726 183.08C90.8766 182.68 91.6766 182.48 92.5726 182.48V186.008H91.6846C90.6286 186.008 89.8286 186.256 89.2846 186.752C88.7566 187.248 88.4926 188.112 88.4926 189.344V195.968H85.1326V182.672H88.4926V184.736ZM96.5397 181.088C95.9477 181.088 95.4517 180.904 95.0517 180.536C94.6677 180.152 94.4757 179.68 94.4757 179.12C94.4757 178.56 94.6677 178.096 95.0517 177.728C95.4517 177.344 95.9477 177.152 96.5397 177.152C97.1317 177.152 97.6197 177.344 98.0037 177.728C98.4037 178.096 98.6037 178.56 98.6037 179.12C98.6037 179.68 98.4037 180.152 98.0037 180.536C97.6197 180.904 97.1317 181.088 96.5397 181.088ZM98.1957 182.672V195.968H94.8357V182.672H98.1957ZM100.651 189.32C100.651 187.944 100.931 186.744 101.491 185.72C102.051 184.68 102.827 183.88 103.819 183.32C104.811 182.744 105.947 182.456 107.227 182.456C108.875 182.456 110.235 182.872 111.307 183.704C112.395 184.52 113.123 185.672 113.491 187.16H109.867C109.675 186.584 109.347 186.136 108.883 185.816C108.435 185.48 107.875 185.312 107.203 185.312C106.243 185.312 105.483 185.664 104.923 186.368C104.363 187.056 104.083 188.04 104.083 189.32C104.083 190.584 104.363 191.568 104.923 192.272C105.483 192.96 106.243 193.304 107.203 193.304C108.563 193.304 109.451 192.696 109.867 191.48H113.491C113.123 192.92 112.395 194.064 111.307 194.912C110.219 195.76 108.859 196.184 107.227 196.184C105.947 196.184 104.811 195.904 103.819 195.344C102.827 194.768 102.051 193.968 101.491 192.944C100.931 191.904 100.651 190.696 100.651 189.32ZM117.657 181.088C117.065 181.088 116.569 180.904 116.169 180.536C115.785 180.152 115.593 179.68 115.593 179.12C115.593 178.56 115.785 178.096 116.169 177.728C116.569 177.344 117.065 177.152 117.657 177.152C118.249 177.152 118.737 177.344 119.121 177.728C119.521 178.096 119.721 178.56 119.721 179.12C119.721 179.68 119.521 180.152 119.121 180.536C118.737 180.904 118.249 181.088 117.657 181.088ZM119.313 182.672V195.968H115.953V182.672H119.313ZM126.545 185.432V191.864C126.545 192.312 126.649 192.64 126.857 192.848C127.081 193.04 127.449 193.136 127.961 193.136H129.521V195.968H127.409C124.577 195.968 123.161 194.592 123.161 191.84V185.432H121.577V182.672H123.161V179.384H126.545V182.672H129.521V185.432H126.545ZM144.657 182.672L136.425 202.256H132.849L135.729 195.632L130.401 182.672H134.169L137.601 191.96L141.081 182.672H144.657ZM45.2186 223.376C46.1626 223.552 46.9386 224.024 47.5466 224.792C48.1546 225.56 48.4586 226.44 48.4586 227.432C48.4586 228.328 48.2346 229.12 47.7866 229.808C47.3546 230.48 46.7226 231.008 45.8906 231.392C45.0586 231.776 44.0746 231.968 42.9386 231.968H35.7146V215.216H42.6266C43.7626 215.216 44.7386 215.4 45.5546 215.768C46.3866 216.136 47.0106 216.648 47.4266 217.304C47.8586 217.96 48.0746 218.704 48.0746 219.536C48.0746 220.512 47.8106 221.328 47.2826 221.984C46.7706 222.64 46.0826 223.104 45.2186 223.376ZM39.0746 222.128H42.1466C42.9466 222.128 43.5626 221.952 43.9946 221.6C44.4266 221.232 44.6426 220.712 44.6426 220.04C44.6426 219.368 44.4266 218.848 43.9946 218.48C43.5626 218.112 42.9466 217.928 42.1466 217.928H39.0746V222.128ZM42.4586 229.232C43.2746 229.232 43.9066 229.04 44.3546 228.656C44.8186 228.272 45.0506 227.728 45.0506 227.024C45.0506 226.304 44.8106 225.744 44.3306 225.344C43.8506 224.928 43.2026 224.72 42.3866 224.72H39.0746V229.232H42.4586ZM63.6885 218.672V231.968H60.3045V230.288C59.8725 230.864 59.3045 231.32 58.6005 231.656C57.9125 231.976 57.1605 232.136 56.3445 232.136C55.3045 232.136 54.3845 231.92 53.5845 231.488C52.7845 231.04 52.1525 230.392 51.6885 229.544C51.2405 228.68 51.0165 227.656 51.0165 226.472V218.672H54.3765V225.992C54.3765 227.048 54.6405 227.864 55.1685 228.44C55.6965 229 56.4165 229.28 57.3285 229.28C58.2565 229.28 58.9845 229 59.5125 228.44C60.0405 227.864 60.3045 227.048 60.3045 225.992V218.672H63.6885ZM72.0917 232.184C71.0037 232.184 70.0277 231.992 69.1637 231.608C68.2997 231.208 67.6117 230.672 67.0997 230C66.6037 229.328 66.3317 228.584 66.2837 227.768H69.6677C69.7317 228.28 69.9797 228.704 70.4117 229.04C70.8597 229.376 71.4117 229.544 72.0677 229.544C72.7077 229.544 73.2037 229.416 73.5557 229.16C73.9237 228.904 74.1077 228.576 74.1077 228.176C74.1077 227.744 73.8837 227.424 73.4357 227.216C73.0037 226.992 72.3077 226.752 71.3477 226.496C70.3557 226.256 69.5397 226.008 68.8997 225.752C68.2757 225.496 67.7317 225.104 67.2677 224.576C66.8197 224.048 66.5957 223.336 66.5957 222.44C66.5957 221.704 66.8037 221.032 67.2197 220.424C67.6517 219.816 68.2597 219.336 69.0437 218.984C69.8437 218.632 70.7797 218.456 71.8517 218.456C73.4357 218.456 74.6997 218.856 75.6437 219.656C76.5877 220.44 77.1077 221.504 77.2037 222.848H73.9877C73.9397 222.32 73.7157 221.904 73.3157 221.6C72.9317 221.28 72.4117 221.12 71.7557 221.12C71.1477 221.12 70.6757 221.232 70.3397 221.456C70.0197 221.68 69.8597 221.992 69.8597 222.392C69.8597 222.84 70.0837 223.184 70.5317 223.424C70.9797 223.648 71.6757 223.88 72.6197 224.12C73.5797 224.36 74.3717 224.608 74.9957 224.864C75.6197 225.12 76.1557 225.52 76.6037 226.064C77.0677 226.592 77.3077 227.296 77.3237 228.176C77.3237 228.944 77.1077 229.632 76.6757 230.24C76.2597 230.848 75.6517 231.328 74.8517 231.68C74.0677 232.016 73.1477 232.184 72.0917 232.184ZM81.7858 217.088C81.1938 217.088 80.6978 216.904 80.2978 216.536C79.9138 216.152 79.7218 215.68 79.7218 215.12C79.7218 214.56 79.9138 214.096 80.2978 213.728C80.6978 213.344 81.1938 213.152 81.7858 213.152C82.3778 213.152 82.8658 213.344 83.2498 213.728C83.6498 214.096 83.8498 214.56 83.8498 215.12C83.8498 215.68 83.6498 216.152 83.2498 216.536C82.8658 216.904 82.3778 217.088 81.7858 217.088ZM83.4418 218.672V231.968H80.0818V218.672H83.4418ZM94.1295 218.48C95.7135 218.48 96.9935 218.984 97.9695 219.992C98.9455 220.984 99.4335 222.376 99.4335 224.168V231.968H96.0735V224.624C96.0735 223.568 95.8095 222.76 95.2815 222.2C94.7535 221.624 94.0335 221.336 93.1215 221.336C92.1935 221.336 91.4575 221.624 90.9135 222.2C90.3855 222.76 90.1215 223.568 90.1215 224.624V231.968H86.7615V218.672H90.1215V220.328C90.5695 219.752 91.1375 219.304 91.8255 218.984C92.5295 218.648 93.2975 218.48 94.1295 218.48ZM114.989 225.032C114.989 225.512 114.957 225.944 114.893 226.328H105.173C105.253 227.288 105.589 228.04 106.181 228.584C106.773 229.128 107.501 229.4 108.365 229.4C109.613 229.4 110.501 228.864 111.029 227.792H114.653C114.269 229.072 113.533 230.128 112.445 230.96C111.357 231.776 110.021 232.184 108.437 232.184C107.157 232.184 106.005 231.904 104.981 231.344C103.973 230.768 103.181 229.96 102.605 228.92C102.045 227.88 101.765 226.68 101.765 225.32C101.765 223.944 102.045 222.736 102.605 221.696C103.165 220.656 103.949 219.856 104.957 219.296C105.965 218.736 107.125 218.456 108.437 218.456C109.701 218.456 110.829 218.728 111.821 219.272C112.829 219.816 113.605 220.592 114.149 221.6C114.709 222.592 114.989 223.736 114.989 225.032ZM111.509 224.072C111.493 223.208 111.181 222.52 110.573 222.008C109.965 221.48 109.221 221.216 108.341 221.216C107.509 221.216 106.805 221.472 106.229 221.984C105.669 222.48 105.325 223.176 105.197 224.072H111.509ZM122.529 232.184C121.441 232.184 120.465 231.992 119.601 231.608C118.737 231.208 118.049 230.672 117.537 230C117.041 229.328 116.769 228.584 116.721 227.768H120.105C120.169 228.28 120.417 228.704 120.849 229.04C121.297 229.376 121.849 229.544 122.505 229.544C123.145 229.544 123.641 229.416 123.993 229.16C124.361 228.904 124.545 228.576 124.545 228.176C124.545 227.744 124.321 227.424 123.873 227.216C123.441 226.992 122.745 226.752 121.785 226.496C120.793 226.256 119.977 226.008 119.337 225.752C118.713 225.496 118.169 225.104 117.705 224.576C117.257 224.048 117.033 223.336 117.033 222.44C117.033 221.704 117.241 221.032 117.657 220.424C118.089 219.816 118.697 219.336 119.481 218.984C120.281 218.632 121.217 218.456 122.289 218.456C123.873 218.456 125.137 218.856 126.081 219.656C127.025 220.44 127.545 221.504 127.641 222.848H124.425C124.377 222.32 124.153 221.904 123.753 221.6C123.369 221.28 122.849 221.12 122.193 221.12C121.585 221.12 121.113 221.232 120.777 221.456C120.457 221.68 120.297 221.992 120.297 222.392C120.297 222.84 120.521 223.184 120.969 223.424C121.417 223.648 122.113 223.88 123.057 224.12C124.017 224.36 124.809 224.608 125.433 224.864C126.057 225.12 126.593 225.52 127.041 226.064C127.505 226.592 127.745 227.296 127.761 228.176C127.761 228.944 127.545 229.632 127.113 230.24C126.697 230.848 126.089 231.328 125.289 231.68C124.505 232.016 123.585 232.184 122.529 232.184ZM135.607 232.184C134.519 232.184 133.543 231.992 132.679 231.608C131.815 231.208 131.127 230.672 130.615 230C130.119 229.328 129.847 228.584 129.799 227.768H133.183C133.247 228.28 133.495 228.704 133.927 229.04C134.375 229.376 134.927 229.544 135.583 229.544C136.223 229.544 136.719 229.416 137.071 229.16C137.439 228.904 137.623 228.576 137.623 228.176C137.623 227.744 137.399 227.424 136.951 227.216C136.519 226.992 135.823 226.752 134.863 226.496C133.871 226.256 133.055 226.008 132.415 225.752C131.791 225.496 131.247 225.104 130.783 224.576C130.335 224.048 130.111 223.336 130.111 222.44C130.111 221.704 130.319 221.032 130.735 220.424C131.167 219.816 131.775 219.336 132.559 218.984C133.359 218.632 134.295 218.456 135.367 218.456C136.951 218.456 138.215 218.856 139.159 219.656C140.103 220.44 140.623 221.504 140.719 222.848H137.503C137.455 222.32 137.231 221.904 136.831 221.6C136.447 221.28 135.927 221.12 135.271 221.12C134.663 221.12 134.191 221.232 133.855 221.456C133.535 221.68 133.375 221.992 133.375 222.392C133.375 222.84 133.599 223.184 134.047 223.424C134.495 223.648 135.191 223.88 136.135 224.12C137.095 224.36 137.887 224.608 138.511 224.864C139.135 225.12 139.671 225.52 140.119 226.064C140.583 226.592 140.823 227.296 140.839 228.176C140.839 228.944 140.623 229.632 140.191 230.24C139.775 230.848 139.167 231.328 138.367 231.68C137.583 232.016 136.663 232.184 135.607 232.184Z" fill="#213B71"/>
</svg>
