<svg width="43" height="44" viewBox="0 0 43 44" fill="none" xmlns="http://www.w3.org/2000/svg">
<path d="M23.2068 1.27372L21.755 1.51675L21.5563 2.92935C21.4493 3.71919 21.2965 4.50904 21.2201 4.7065C21.0826 5.07104 19.86 5.80012 16.5285 7.54689C14.6029 8.56457 14.5112 8.56457 13.8847 7.51651C13.1359 6.27099 13.1511 6.28618 11.8063 6.19504C11.0422 6.13429 10.5226 6.16467 10.4768 6.2558C10.4156 6.34694 10.5226 6.8178 10.6907 7.30386C11.1186 8.48863 11.2867 11.0101 10.9352 11.0101C10.5226 11.0101 8.64291 10.3873 7.75655 9.9468L6.91604 9.53669L4.24166 9.96199C2.77458 10.1898 1.4756 10.3873 1.33806 10.3873C0.956011 10.4025 0.925446 10.6455 1.10883 12.3771L1.27693 13.9568L2.34668 14.3517C4.27223 15.0656 5.37254 15.7795 6.83962 17.2528C8.67348 19.0908 10.3239 22.0071 11.0728 24.7564C11.2409 25.3943 11.2562 25.5462 11.0728 25.6677C10.9658 25.7437 10.7824 26.3968 10.6907 27.1107C10.2934 29.7384 9.43758 32.4118 8.12332 35.1306C7.72599 35.9357 7.48147 36.604 7.55788 36.6799C7.63429 36.7407 10.003 37.6672 12.8149 38.7305C15.6268 39.7937 19.371 41.2064 21.1131 41.8595C22.8706 42.5278 24.3529 43.0291 24.4141 42.9987C24.4752 42.9531 24.5822 42.4367 24.628 41.8595C24.8725 38.9128 27.0884 37.0749 29.7781 37.5913C30.909 37.804 32.0398 38.3963 33.0484 39.2773C33.5069 39.6874 33.9501 40.0216 34.0265 40.0216C34.2099 40.0216 40.5214 34.7509 40.5978 34.5383C40.6284 34.4623 40.4756 33.9459 40.2616 33.3687C39.6962 31.8953 39.1919 30.1789 38.2749 26.6398C37.8317 24.9234 37.4191 23.4349 37.358 23.3438C37.2816 23.2222 37.1441 23.2222 36.8537 23.3286C36.6397 23.4045 36.4258 23.4501 36.3952 23.4045C36.3341 23.3589 37.8165 21.5058 39.2683 19.8198C39.9101 19.0756 40.0018 18.8629 40.1699 17.8452C40.4297 16.144 40.9951 14.1239 41.5912 12.7264C41.9732 11.8151 42.0802 11.4354 41.9426 11.3442C41.8509 11.2683 41.3619 11.086 40.8576 10.9341C36.273 9.64301 30.7867 6.31656 26.63 2.32178C25.8047 1.53193 25.117 0.985124 24.9489 1.00031C24.7961 1.0155 24.0014 1.13701 23.2068 1.27372ZM26.4619 3.15719C30.7103 7.00008 35.1421 9.73415 39.5892 11.2379L41.2091 11.7999L40.934 12.453C40.4144 13.653 39.8643 15.5516 39.5739 17.1617L39.2988 18.7262L37.7706 20.5337C34.3016 24.6348 34.0724 25.1513 36.059 24.3766C36.4869 24.1944 36.869 24.088 36.8843 24.1032C36.8995 24.1336 37.2816 25.5462 37.7248 27.2626C38.3972 29.86 39.3752 33.0953 39.7726 34.113C39.849 34.2952 39.1766 34.9484 37.1593 36.6192C35.6617 37.8799 34.3474 38.9431 34.2405 39.0191C34.1182 39.0799 33.675 38.852 33.0179 38.366C31.7189 37.3938 30.6186 36.9534 29.2126 36.8622C27.8525 36.7863 26.8439 37.0901 25.82 37.8951C24.9489 38.5786 24.1848 39.9608 23.9862 41.2064C23.925 41.6468 23.8333 42.0266 23.8028 42.057C23.7569 42.1177 8.53594 36.4217 8.41368 36.3154C8.3984 36.285 8.64291 35.6926 8.97912 34.9787C10.003 32.7915 10.7671 30.4371 11.2867 27.8398C11.4548 27.0347 11.4854 26.974 11.7605 27.1563C12.4329 27.5664 12.3718 26.6854 11.5771 23.9969C10.5837 20.6856 8.12332 17.0402 5.70875 15.339C4.77654 14.6707 2.66761 13.5922 2.31612 13.5922C2.02576 13.5922 1.85766 13.1517 1.76596 12.0733L1.67427 11.0708L4.18054 10.6607L6.67152 10.2506L7.68014 10.7063C8.91799 11.2683 10.8435 11.7999 11.409 11.7391L11.8216 11.6936L11.8063 10.1746C11.791 9.32404 11.6841 8.27598 11.5465 7.77473L11.3173 6.90895H11.9897C12.6315 6.90895 12.6774 6.93932 13.1817 7.72916C13.4721 8.16965 13.8694 8.65571 14.0528 8.79242C14.7558 9.27847 14.9544 9.20253 19.1112 6.93932C21.8619 5.43558 21.9078 5.39001 22.1981 3.35465L22.3662 2.12431L23.3596 1.95724C23.9097 1.8661 24.4752 1.77496 24.628 1.75978C24.7961 1.75978 25.5908 2.36735 26.4619 3.15719Z" fill="#FEE900" stroke="#FEE900"/>
</svg>
