<svg width="50" height="43" viewBox="0 0 50 43" fill="none" xmlns="http://www.w3.org/2000/svg">
<path d="M6.52642 0.152499C5.00978 0.48172 3.74755 1.75019 3.42466 3.27041C3.30724 3.80297 3.27789 5.11986 3.27789 10.2325V16.5458L2.52446 16.5845C1.37965 16.6426 0.714286 17.0396 0.215264 17.9595L0 18.3565V29.7824V41.2082L0.215264 41.6052C0.332681 41.8183 0.606654 42.1572 0.821918 42.3508C1.59491 43.0383 0.440313 42.9996 18.2583 42.9996C29.7945 42.9996 34.3542 42.9705 34.5205 42.8931C34.9022 42.7188 35.0098 42.4089 34.9609 41.7021C34.8337 40.1238 33.6008 38.6907 31.9569 38.1968C31.6536 38.1097 30.998 38.0613 29.9119 38.0613H28.3268L28.3464 35.5631L28.3757 33.0746H33.3659H38.3562L38.4051 37.1898L38.454 41.3051L38.728 41.7699C39.0313 42.2734 39.6575 42.7382 40.2642 42.9028C40.4599 42.9609 42.1429 42.9996 44.1879 42.9996C48.2192 42.9996 48.4932 42.9609 49.1781 42.3508C49.3933 42.1572 49.6673 41.8183 49.7847 41.6052L50 41.2082V32.2515C50 23.7015 49.9902 23.2754 49.8141 22.9559C49.3249 22.036 48.591 21.5906 47.4853 21.5228L46.7221 21.4744V12.7016C46.7221 5.42003 46.6928 3.81266 46.5753 3.27041C46.2427 1.72114 44.9902 0.48172 43.4247 0.152499C42.456 -0.0508428 7.47554 -0.0508428 6.52642 0.152499ZM43.5029 1.8567C44.0313 2.09877 44.5303 2.57324 44.7847 3.08644L45.0098 3.54154L45.0391 12.5176L45.0587 21.5034H42.7789C40.9883 21.5034 40.4012 21.5325 40.0587 21.6487C39.0117 22.0069 38.4051 22.8978 38.4051 24.0888V24.7956H29.2074H20.0098V21.8617C20.0098 19.6152 19.9804 18.8116 19.8728 18.4049L19.726 17.8723C19.726 17.8723 19.2992 17.3052 19.3367 17.3564C18.9048 16.9291 18.9048 16.9291 18.9048 16.9291C18.9048 16.9291 18.3919 16.6619 18.2094 16.6619C18.0333 16.6038 15.7339 16.5651 11.4384 16.5651H4.94129V10.2906C4.94129 6.36896 4.98043 3.86107 5.04892 3.58995C5.24462 2.72817 5.92955 2.01163 6.78082 1.78892C7.14286 1.69209 10.9687 1.67272 25.1957 1.68241C41.5362 1.70177 43.18 1.71145 43.5029 1.8567ZM18.0235 18.4436L18.2975 18.676V28.3493V38.0129L9.96086 38.0419L1.61448 38.0613V28.4171V18.7728L1.89824 18.492L2.182 18.2112H9.97065H17.7495L18.0235 18.4436ZM48.1018 23.4303L48.3855 23.7111V30.8862V38.0613H44.227H40.0685V30.8668C40.0685 23.2754 40.0587 23.5078 40.5088 23.2657C40.636 23.1883 41.8787 23.1592 44.2564 23.1495H47.818L48.1018 23.4303ZM38.3855 28.9303L38.4051 31.38H29.2074H20.0098V28.9109V26.4417L29.1879 26.4611L38.3562 26.4901L38.3855 28.9303ZM21.6536 35.5631L21.6732 38.0613H20.8415H20.0098V35.5437V33.0165L20.8219 33.0455L21.6243 33.0746L21.6536 35.5631ZM26.6634 35.5437V38.0613H25H23.3366V35.5437V33.0261H25H26.6634V35.5437ZM18.3464 40.0947C18.3464 40.6563 18.1311 41.1017 17.7984 41.2373C17.5832 41.3244 15.5969 41.3535 9.81409 41.3341L2.1135 41.3051L1.88845 41.0921C1.7319 40.9274 1.66341 40.7241 1.63405 40.2884L1.59491 39.7074H9.97065H18.3464V40.0947ZM31.8493 39.9107C32.3875 40.1528 32.7887 40.5111 33.0333 40.9952L33.2192 41.3535H26.5264H19.8337L19.9217 40.9855C19.9706 40.7919 20.0098 40.4239 20.0098 40.1625V39.7074H25.7143C31.2329 39.7074 31.4188 39.7171 31.8493 39.9107ZM48.366 40.2884C48.3366 40.7241 48.2681 40.9274 48.1115 41.0921C47.8963 41.3051 47.8474 41.3051 44.4912 41.3341C42.6223 41.3535 40.9491 41.3341 40.773 41.3051C40.2642 41.2082 40.0685 40.9274 40.0685 40.269V39.7074H44.2368H48.4051L48.366 40.2884Z" fill="#FEE900"/>
</svg>
