<svg width="43" height="43" viewBox="0 0 43 43" fill="none" xmlns="http://www.w3.org/2000/svg">
<circle cx="21.5" cy="21.5" r="20.5" stroke="#FEE900" stroke-width="2"/>
<rect x="38.5" y="21.5" width="3" height="1" stroke="#FEE900"/>
<rect x="21.5" y="38.5" width="3" height="1" transform="rotate(90 21.5 38.5)" stroke="#FEE900"/>
<rect x="21.5" y="1.5" width="3" height="1" transform="rotate(90 21.5 1.5)" stroke="#FEE900"/>
<rect x="1.5" y="21.5" width="3" height="1" stroke="#FEE900"/>
<path d="M14.3857 28.0266V26.5178L12.7373 26.5051H12.7363L11.0156 26.4875L10.9463 26.4865L10.9492 26.4172L10.9678 26.0822C10.9865 25.6726 11.0648 25.3432 11.2725 24.9699C11.4787 24.5993 11.8119 24.1864 12.335 23.6086C13.8024 21.9876 14.3703 20.9947 14.5244 19.7726L14.5498 19.5246C14.6398 18.2859 14.186 17.2437 13.3906 16.7853L13.2266 16.7014C12.7432 16.4831 12.1206 16.392 11.5449 16.4484L11.3018 16.4816C10.7769 16.5771 10.3592 16.7775 10.042 17.0822C9.76446 17.3489 9.56036 17.6987 9.42969 18.1359L9.37793 18.3283C9.32497 18.5578 9.28907 19.0138 9.28906 19.5295V20.3019H10.8486L10.8701 19.4973C10.8792 19.0226 10.8989 18.7268 10.9639 18.5236C10.9971 18.4199 11.0429 18.3383 11.1055 18.2687C11.1366 18.2342 11.1716 18.203 11.21 18.174L11.335 18.092C11.4802 18.0043 11.6901 17.9654 11.8867 17.967C12.0333 17.9682 12.1831 17.9917 12.3008 18.0422L12.4062 18.1017C12.5572 18.2142 12.6641 18.3404 12.7363 18.5119C12.8075 18.681 12.843 18.8902 12.8584 19.1662C12.9238 20.186 12.5895 20.998 11.5576 22.2424L11.0723 22.8039C10.512 23.4325 10.2439 23.7577 10.0234 24.1066L9.80957 24.4758C9.62014 24.8246 9.50302 25.1076 9.42871 25.465C9.3727 25.7346 9.34113 26.048 9.32227 26.466L9.30664 26.9211L9.27832 28.0266H14.3857Z" fill="#FEE900" stroke="#FEE900" stroke-width="0.133333"/>
<path d="M19.73 28.0141L20.5591 27.9975L20.5708 27.0277L20.5835 25.9936V25.9311L20.647 25.9281L21.0786 25.9096L21.4448 25.8949L21.4282 25.1566L21.4116 24.4154L21.0581 24.3891L20.645 24.3578L20.5835 24.3539V24.2914L20.5894 20.5697L20.5806 17.894C20.5775 17.5427 20.5734 17.2525 20.5688 17.0453C20.5666 16.9417 20.5637 16.8584 20.561 16.7992C20.5597 16.7698 20.5585 16.7467 20.5571 16.7299L20.5552 16.7074L20.5542 16.7055L20.5298 16.6039H18.686L18.6187 16.7592L16.9829 20.6322L15.4312 24.3012V25.8988L17.0864 25.9096L18.8013 25.9281L18.8667 25.9291L18.8677 25.9936L18.8862 27.0453V27.0463L18.897 28.0316L19.73 28.0141ZM17.8999 24.3764L17.0112 24.3588L16.9155 24.3568L16.9507 24.267L17.7661 22.1996C17.9911 21.631 18.2037 21.097 18.3657 20.6947L18.6626 19.974V19.9731C18.6678 19.9631 18.6758 19.9505 18.686 19.9398C18.6949 19.9307 18.7199 19.9092 18.7563 19.9154C18.7908 19.9216 18.8074 19.9482 18.813 19.9584C18.82 19.9714 18.8244 19.9863 18.8276 19.9994C18.8402 20.0512 18.8482 20.1479 18.855 20.2973C18.8619 20.4493 18.8678 20.6629 18.8726 20.9525L18.8862 22.0648V22.0658C18.8893 22.6737 18.8909 23.2301 18.8901 23.6361C18.8898 23.8392 18.8888 24.0057 18.8872 24.1215C18.8864 24.1789 18.8845 24.2244 18.8833 24.2563C18.8827 24.272 18.8821 24.2855 18.8813 24.2953C18.881 24.3 18.8811 24.3053 18.8804 24.31C18.88 24.3122 18.8796 24.3165 18.8784 24.3207C18.8779 24.3227 18.8761 24.3257 18.8745 24.3295C18.8732 24.3325 18.8688 24.342 18.8599 24.351L18.8608 24.352L18.8501 24.3598L18.8276 24.3695C18.8233 24.3707 18.8191 24.371 18.8159 24.3715C18.8094 24.3726 18.802 24.3738 18.7944 24.3744C18.779 24.3757 18.7583 24.3765 18.7339 24.3773C18.6845 24.379 18.6154 24.3799 18.5327 24.3803L17.8999 24.3764Z" fill="#FEE900" stroke="#FEE900" stroke-width="0.133333"/>
<path d="M22.644 28.0266H23.3833L24.9722 24.006L27.2046 18.3381V18.3371C27.3809 17.8934 27.5438 17.4786 27.6646 17.1672C27.7808 16.8673 27.856 16.667 27.8696 16.6262C27.8614 16.624 27.8505 16.6204 27.8354 16.6183C27.7424 16.6055 27.5581 16.6037 27.2056 16.6037C26.997 16.6037 26.8041 16.6106 26.6616 16.6203C26.5903 16.6252 26.5327 16.6308 26.4927 16.6369C26.4776 16.6392 26.4659 16.6418 26.4575 16.6437L26.4565 16.6457C26.4504 16.6591 26.4412 16.6785 26.4302 16.7043C26.4081 16.7558 26.3774 16.8319 26.3354 16.9348C26.2516 17.1407 26.1255 17.4536 25.9507 17.8937L24.2446 22.218L22.7251 26.0803C22.3296 27.0841 21.9841 27.9484 21.9653 28.0041L21.9028 27.9836L21.9575 28.0031C21.9657 28.0056 21.9779 28.0084 21.9956 28.0109C22.0899 28.0245 22.2795 28.0265 22.644 28.0266Z" fill="#FEE900" stroke="#FEE900" stroke-width="0.133333"/>
<path d="M30.5798 28.0141L31.4597 27.9975L32.8582 23.0873L34.2673 18.1381L34.2732 17.3393V16.6039H28.9324V18.1127H30.6902C31.3439 18.1127 31.8014 18.1177 32.0955 18.1284C32.2418 18.1337 32.3497 18.14 32.4216 18.1489C32.4568 18.1532 32.4871 18.1586 32.5095 18.1655C32.5203 18.1688 32.5344 18.1747 32.5466 18.183C32.5577 18.1906 32.5818 18.2108 32.5818 18.2465C32.5818 18.2521 32.581 18.2569 32.5808 18.2582C32.5805 18.26 32.5801 18.262 32.5798 18.2631C32.5793 18.2655 32.5785 18.2682 32.5779 18.2709C32.5765 18.2765 32.5745 18.2843 32.572 18.2934C32.5671 18.3117 32.5599 18.3382 32.5505 18.3715C32.5318 18.4385 32.5044 18.5353 32.4695 18.6577C32.3994 18.903 32.2989 19.2522 32.1775 19.6723C31.9346 20.513 31.6073 21.6396 31.2712 22.7944C30.6023 25.0934 29.8973 27.5063 29.7468 28.0024C29.7588 28.0053 29.7765 28.0078 29.8005 28.0102C29.8581 28.016 29.9436 28.0186 30.0691 28.019L30.5798 28.0141Z" fill="#FEE900" stroke="#FEE900" stroke-width="0.133333"/>
</svg>
